<svg xmlns="http://www.w3.org/2000/svg" viewBox="0 0 364.47 360.09"><defs><style>.cls-1{fill:#ee6352;}.cls-2,.cls-4{fill:#fed766;}.cls-3{fill:#266dd3;}.cls-4{font-size:18.78px;font-family:BebasNeue-Regular, Bebas Neue;}.cls-5{letter-spacing:-0.05em;}.cls-6{letter-spacing:0em;}.cls-7{letter-spacing:0em;}</style></defs><g id="Layer_2" data-name="Layer 2"><g id="Logo"><g id="favicon"><path id="Nota" class="cls-1" d="M339.43,300.48c-11.05-37.32-12.34-215-12.5-256a7.75,7.75,0,0,0-8.44-7.7c-29.6,2.61-129,10.74-163.37,5.49C114.08,36,4.53,39.12,4.53,39.12-3.3,42.25,1.4,55.83,1.4,55.83c9.39,30.8,4.69,265,4.69,265C12.35,364.64,62.43,360,62.43,360l280.62-7.67a6.22,6.22,0,0,0,6.06-6.52C348.76,338.89,346.82,325.4,339.43,300.48ZM31.13,75.12a11,11,0,1,1,11-11A11,11,0,0,1,31.13,75.12Zm37.56,0a11,11,0,1,1,11-11A11,11,0,0,1,68.69,75.12Zm40.69,1.56a11,11,0,1,1,11-11A10.95,10.95,0,0,1,109.38,76.68Zm39.13,1.57a11,11,0,1,1,11-11A11,11,0,0,1,148.51,78.25Zm40.69,0a11,11,0,1,1,11-11A11,11,0,0,1,189.2,78.25Zm40.69,0a11,11,0,1,1,11-11A11,11,0,0,1,229.89,78.25Zm37.55-1.57a11,11,0,1,1,11-11A10.95,10.95,0,0,1,267.44,76.68ZM301.87,72a11,11,0,1,1,11-11A11,11,0,0,1,301.87,72Z"/><g id="LineaNota"><path class="cls-2" d="M23.05,102.65c9.15-2.1,18.55-2.24,27.89-2.42q14.31-.26,28.61-.34c19.27-.12,38.54-.07,57.8,0,38.53.07,77.07,0,115.57-1.68,21.08-1,42.19-2.38,63-6.12,1.89-.34,1.09-3.23-.8-2.89-18.64,3.35-37.54,4.8-56.43,5.74-19.22.95-38.45,1.45-57.69,1.71-38.53.52-77.07.07-115.6.25q-16.06.08-32.11.33c-10.38.18-20.86.24-31,2.57-1.88.43-1.08,3.33.8,2.89Z"/></g><path id="Cinta" class="cls-3" d="M347.05,120.21,342.56,108H352l-4.69-11,9.39-1.57-3.13-10.95,11-4.7S220.5,6.26,218.93,0l1.57,11h-7.83l1.57,11-7.83,1.56,3.13,7.83-10.95-1.57,6.26,9.39-11,1.57s123.63,75.12,151.8,79.81l1.34.23C347,120.55,347,120.38,347.05,120.21Z"/><text class="cls-4" transform="translate(23.21 129.99)"><tspan class="cls-5">T</tspan><tspan x="5.97" y="0">arei</tspan><tspan class="cls-5" x="31.49" y="0">t</tspan><tspan class="cls-6" x="37.47" y="0">a</tspan><tspan class="cls-7" x="44.94" y="0">s</tspan></text></g></g></g></svg>