<svg id="Layer_1" data-name="Layer 1" xmlns="http://www.w3.org/2000/svg" viewBox="0 0 32 32"><defs><style>.cls-1{fill:#faf7f0;}.cls-2{fill:#b8e8fc;}.cls-3{fill:#98a8f8;}</style></defs><g id="favicon"><rect class="cls-1" x="13.84" y="24.74" width="18.16" height="7.26"/><rect class="cls-1" width="18.16" height="7.26"/><circle class="cls-2" cx="16" cy="16" r="16"/><path class="cls-1" d="M32,16v0A16,16,0,0,0,30.14,8.5c-4.66-.5-16.63-.41-19.7,9.88H31.82A15.34,15.34,0,0,0,32,16Z"/><path class="cls-3" d="M13.94,22.61c-.56.49-1.14.94-1.73,1.38a6.37,6.37,0,0,0-1.55,1.47.35.35,0,0,1-.22.15v1.45L10.5,27A12.25,12.25,0,0,1,13,25.75a13.29,13.29,0,0,0,2.24-1.1,11.55,11.55,0,0,0,1.9-1.58c.59-.6,1.15-1.22,1.7-1.86A4.17,4.17,0,0,0,20,19.29H17A23.62,23.62,0,0,1,13.94,22.61Z"/><path class="cls-3" d="M15.55,25.26c-1.48.95-3.25,1.32-4.7,2.33a.28.28,0,0,1-.41-.06v.8c1.33-.18,2.67-.37,4-.65a13.86,13.86,0,0,0,6.34-2.88,15.08,15.08,0,0,0,3.76-5.51H20.64a4.83,4.83,0,0,1-1.25,2.33A17.68,17.68,0,0,1,15.55,25.26Z"/><path class="cls-3" d="M17.45,29a10.06,10.06,0,0,0,1.85-.94,28.8,28.8,0,0,0,3.45-2.46,14.69,14.69,0,0,0,4.59-6.33H25.27a19.42,19.42,0,0,1-1.92,3.6,12.44,12.44,0,0,1-5.58,4.5A29.57,29.57,0,0,1,10.44,29v.89a30.38,30.38,0,0,0,4.85-.37A11.5,11.5,0,0,0,17.45,29Z"/><path class="cls-3" d="M28.05,19.29s0,0,0,.05a13.63,13.63,0,0,1-2.21,4.09,23.18,23.18,0,0,1-6.63,5.51,9.33,9.33,0,0,1-2,.89,17.35,17.35,0,0,1-2.26.44,31.16,31.16,0,0,1-3.2.28c3.71.83,14.53,2,19.37-11.26Z"/><path class="cls-3" d="M11.61,23.6c.6-.45,1.2-.91,1.77-1.41a23.9,23.9,0,0,0,2.79-2.9H10.44v5.35A7.76,7.76,0,0,1,11.61,23.6Z"/></g></svg>